<svg width="111" height="112" viewBox="0 0 111 112" fill="none" xmlns="http://www.w3.org/2000/svg">
<path d="M74.3801 42.3207C66.5355 42.3207 58.5691 41.9797 51.1083 39.7531C43.7879 37.5766 37.0666 33.3541 31.0755 28.4695C27.1438 25.2901 23.5865 22.7526 18.4847 23.1337C13.5021 23.4297 8.74016 25.4339 4.90169 28.8507C-1.58558 34.9287 -0.602657 46.1721 1.98102 54.0756C5.88462 65.981 17.7265 74.2556 27.8084 79.6416C39.4443 85.8701 52.2223 89.4607 65.047 91.567C76.2804 93.4024 90.7059 94.7264 100.442 86.873C109.391 79.6516 111.843 63.1526 109.653 52.0195C109.118 48.7295 107.48 45.7619 105.047 43.6747C98.7659 38.7501 89.3954 42.0399 82.3371 42.2003C79.716 42.3207 77.0574 42.3207 74.3801 42.3207Z" fill="#F2F2F2"/>
<path d="M55.1987 111.085C74.1779 111.085 89.5635 110.057 89.5635 108.788C89.5635 107.52 74.1779 106.491 55.1987 106.491C36.2196 106.491 20.834 107.52 20.834 108.788C20.834 110.057 36.2196 111.085 55.1987 111.085Z" fill="#F2F2F2"/>
<path d="M34.146 8.46982C33.817 6.61057 34.1902 4.68742 35.1836 3.12278C36.1771 1.55814 37.7095 0.479949 39.4444 0.125031H39.6035C41.3388 -0.227489 43.1338 0.172368 44.5941 1.23678C46.0544 2.30118 47.0608 3.9431 47.392 5.8019L34.146 8.46982Z" fill="#D2D2D2"/>
<path d="M18.9391 11.5642L62.5951 2.67534C64.7171 2.24328 66.9124 2.73209 68.698 4.03423C70.4836 5.33637 71.7133 7.34518 72.1166 9.61875L12.4677 21.7639C12.0648 19.492 12.52 17.1417 13.7334 15.2292C14.9468 13.3167 16.8191 11.9985 18.9391 11.5642Z" fill="white" stroke="#BABABA" stroke-linecap="round" stroke-linejoin="round"/>
<path d="M9.18945 22.4212L75.3821 8.95117" stroke="#BABABA" stroke-linecap="round" stroke-linejoin="round"/>
<path d="M99.4118 78.1868L67.0223 102.198C66.1524 102.834 65.0902 103.095 64.0486 102.928C63.007 102.76 62.0629 102.177 61.4056 101.295L25.3184 52.5807L70.7667 18.8906L100.619 72.189C101.165 73.1665 101.344 74.3296 101.12 75.4431C100.896 76.5565 100.285 77.5372 99.4118 78.1868Z" fill="white" stroke="#BABABA" stroke-linecap="round" stroke-linejoin="round"/>
<path d="M20.0762 56.4722L76.009 14.999" stroke="#BABABA" stroke-linecap="round" stroke-linejoin="round"/>
<path d="M45.8219 43.1295L45.8143 43.1354C45.0809 43.703 44.9158 44.8001 45.4455 45.586L74.5834 88.8088C75.1132 89.5946 76.1372 89.7715 76.8707 89.2039L76.8783 89.1981C77.6117 88.6305 77.7768 87.5333 77.2471 86.7475L48.1092 43.5246C47.5794 42.7388 46.5554 42.5619 45.8219 43.1295Z" fill="#D2D2D2"/>
<path d="M84.8493 83.4045L84.8571 83.399C85.608 82.8658 85.8134 81.7813 85.3158 80.9768L57.9457 36.7225C57.4481 35.9179 56.4359 35.6979 55.685 36.231L55.6772 36.2365C54.9262 36.7697 54.7209 37.8542 55.2185 38.6587L82.5886 82.913C83.0862 83.7176 84.0984 83.9376 84.8493 83.4045Z" fill="#D2D2D2"/>
<path d="M64.3027 29.4714L64.2948 29.4767C63.5258 29.9874 63.2887 31.0693 63.7654 31.8933L89.9813 77.2131C90.4579 78.037 91.4678 78.291 92.2368 77.7803L92.2447 77.775C93.0138 77.2644 93.2508 76.1824 92.7742 75.3585L66.5582 30.0387C66.0816 29.2147 65.0718 28.9607 64.3027 29.4714Z" fill="#D2D2D2"/>
<path d="M69.0945 94.9152L69.1019 94.9091C69.8191 94.318 69.9532 93.216 69.4015 92.4477L39.059 50.187C38.5074 49.4187 37.4788 49.275 36.7617 49.866L36.7543 49.8721C36.0372 50.4632 35.903 51.5652 36.4547 52.3336L66.7972 94.5942C67.3489 95.3625 68.3774 95.5063 69.0945 94.9152Z" fill="#D2D2D2"/>
<path d="M81.5971 20.1543C82.1037 20.1543 82.5145 19.7142 82.5145 19.1714C82.5145 18.6285 82.1037 18.1885 81.5971 18.1885C81.0904 18.1885 80.6797 18.6285 80.6797 19.1714C80.6797 19.7142 81.0904 20.1543 81.5971 20.1543Z" fill="#CFCFCF"/>
<path d="M9.83536 14.6485C10.342 14.6485 10.7528 14.2084 10.7528 13.6655C10.7528 13.1227 10.342 12.6826 9.83536 12.6826C9.3287 12.6826 8.91797 13.1227 8.91797 13.6655C8.91797 14.2084 9.3287 14.6485 9.83536 14.6485Z" fill="#CFCFCF"/>
<path d="M83.2826 98.0967C83.7893 98.0967 84.2 97.6566 84.2 97.1138C84.2 96.5709 83.7893 96.1309 83.2826 96.1309C82.776 96.1309 82.3652 96.5709 82.3652 97.1138C82.3652 97.6566 82.776 98.0967 83.2826 98.0967Z" fill="#CFCFCF"/>
<path d="M44.4434 25.2393V29.5521" stroke="#BABABA" stroke-linecap="round" stroke-linejoin="round"/>
<path d="M42.4297 27.3965H46.4643" stroke="#BABABA" stroke-linecap="round" stroke-linejoin="round"/>
<path d="M30.916 84.8564V89.1693" stroke="#BABABA" stroke-linecap="round" stroke-linejoin="round"/>
<path d="M28.8945 87.0137H32.9292" stroke="#BABABA" stroke-linecap="round" stroke-linejoin="round"/>
<path d="M87.543 33.9258V38.2486" stroke="#BABABA" stroke-linecap="round" stroke-linejoin="round"/>
<path d="M85.5293 36.0918H89.5546" stroke="#BABABA" stroke-linecap="round" stroke-linejoin="round"/>
</svg>
