<svg width="101" height="104" viewBox="0 0 101 104" fill="none" xmlns="http://www.w3.org/2000/svg">
<path d="M2.26987 87.7159C6.09553 97.1411 12.3333 99.1029 16.719 97.1411C25.2007 93.347 47.2331 89.1079 69.8612 99.0723C99.831 112.27 106.208 92.3583 96.6427 72.2173C87.078 52.0763 83.836 31.7083 94.8623 20.4867C105.889 9.26506 91.4595 -8.28962 65.8349 9.98358C49.2753 21.7924 37.1225 19.1629 30.5964 15.8246C24.4459 12.6784 17.6057 9.38917 11.1971 11.9574C3.42095 15.0738 0.356907 21.8303 12.1879 36.9244C28.9535 58.314 -6.30585 66.5895 2.26987 87.7159Z" fill="#DEE9FF"/>
<path d="M17.8467 41.8025H77.3855V88.0312C77.3855 88.1254 77.3485 88.2157 77.2825 88.2823C77.2166 88.3488 77.1272 88.3862 77.0339 88.3862H18.1983C18.105 88.3862 18.0156 88.3488 17.9497 88.2823C17.8837 88.2157 17.8467 88.1254 17.8467 88.0312V41.8025Z" fill="#A2BDFF"/>
<path d="M62.4492 23.6865H34.7649L17.8467 41.8024H77.3855L62.4492 23.6865Z" fill="#418DF9"/>
<path d="M23.4865 16.4402L34.7653 23.6866L17.8471 41.8024L5.03027 31.9681L23.4865 16.4402Z" fill="#699CFF"/>
<path d="M73.728 16.4402L62.4492 23.6866L77.3856 41.8024L92.1842 31.9681L73.728 16.4402Z" fill="#699CFF"/>
<path d="M42.0386 16.8108C42.3569 16.6584 42.6045 16.3878 42.7297 16.0554C42.855 15.723 42.8481 15.3546 42.7106 15.0272L37.6368 2.94813C37.5649 2.77704 37.4595 2.62238 37.3269 2.49346C37.1943 2.36455 37.0373 2.26403 36.8652 2.19796C36.6932 2.13189 36.5097 2.10163 36.3258 2.10899C36.1418 2.11636 35.9613 2.1612 35.795 2.24083L34.8174 2.70879C34.6511 2.78841 34.5025 2.90117 34.3804 3.04027C34.2584 3.17938 34.1654 3.34198 34.1072 3.51827C34.049 3.69457 34.0267 3.88094 34.0416 4.06616C34.0566 4.25139 34.1084 4.43165 34.1942 4.59611L40.2455 16.2072C40.4095 16.5219 40.6876 16.7604 41.0218 16.8729C41.356 16.9854 41.7203 16.9632 42.0386 16.8108Z" fill="#418DF9"/>
<path d="M48.3994 15.6398C48.6297 15.6232 48.8448 15.5174 48.9998 15.3445C49.1547 15.1716 49.2374 14.9449 49.2307 14.7119L48.9801 6.11263C48.9765 5.99083 48.9486 5.871 48.898 5.76037C48.8474 5.64973 48.7752 5.55056 48.6857 5.46883C48.5961 5.38709 48.4912 5.32448 48.3771 5.28475C48.263 5.24502 48.1421 5.22899 48.0217 5.23763L47.314 5.28853C47.1937 5.29718 47.0763 5.33031 46.9689 5.38592C46.8616 5.44153 46.7665 5.51848 46.6893 5.61214C46.6122 5.7058 46.5546 5.81425 46.52 5.93095C46.4854 6.04766 46.4745 6.17022 46.4881 6.29127L47.4464 14.8397C47.4723 15.0714 47.5859 15.2841 47.7635 15.4332C47.9411 15.5823 48.169 15.6563 48.3994 15.6398Z" fill="#418DF9"/>
<path d="M53.3108 18.8185C53.9444 19.1884 54.8339 18.849 55.3272 18.049L64.0872 3.84528C64.6105 2.99676 64.4865 1.96257 63.8145 1.5703L62.8778 1.0236C62.2058 0.631251 61.2561 1.03865 60.7888 1.91983L52.9655 16.6702C52.5249 17.501 52.6772 18.4486 53.3108 18.8185Z" fill="#418DF9"/>
</svg>
