<svg width="20" height="21" viewBox="0 0 20 21" fill="none" xmlns="http://www.w3.org/2000/svg">
<path d="M2.5 11.3037C5.5 4.63704 14.5 4.63704 17.5 11.3037" stroke="#6AA9FF" stroke-width="1.5" stroke-linecap="round" stroke-linejoin="round"/>
<path d="M10 14.6367C9.6717 14.6367 9.34661 14.5721 9.04329 14.4464C8.73998 14.3208 8.46438 14.1366 8.23223 13.9045C8.00009 13.6723 7.81594 13.3967 7.6903 13.0934C7.56466 12.7901 7.5 12.465 7.5 12.1367C7.5 11.8084 7.56466 11.4833 7.6903 11.18C7.81594 10.8767 8.00009 10.6011 8.23223 10.369C8.46438 10.1368 8.73998 9.95266 9.04329 9.82702C9.34661 9.70138 9.6717 9.63672 10 9.63672C10.663 9.63672 11.2989 9.90011 11.7678 10.369C12.2366 10.8378 12.5 11.4737 12.5 12.1367C12.5 12.7998 12.2366 13.4356 11.7678 13.9045C11.2989 14.3733 10.663 14.6367 10 14.6367Z" fill="#6AA9FF" stroke="#6AA9FF" stroke-width="1.5" stroke-linecap="round" stroke-linejoin="round"/>
</svg>
